<svg id="图层_1" data-name="图层 1" xmlns="http://www.w3.org/2000/svg" viewBox="0 0 145 144.9"><defs><style>.cls-1{fill:#0078b9;}.cls-2{fill:#21a4f1;}</style></defs><title>TCSIM_Color</title><path class="cls-1" d="M86.8,27.6h26.3a6.4124,6.4124,0,0,1,4.7,1.9,6.1907,6.1907,0,0,1,1.9,4.6,6.0393,6.0393,0,0,1-1.9,4.6,6.2578,6.2578,0,0,1-4.7,1.9H86.8a6.4124,6.4124,0,0,1-4.7-1.9,6.1907,6.1907,0,0,1-1.9-4.6,6.0393,6.0393,0,0,1,1.9-4.6,6.5739,6.5739,0,0,1,4.7-1.9Zm79,52.6a6.8338,6.8338,0,0,1,4.7,1.9,6.2578,6.2578,0,0,1,1.9,4.7v26.3a6.0393,6.0393,0,0,1-1.9,4.6,6.2578,6.2578,0,0,1-4.7,1.9,6.4124,6.4124,0,0,1-4.7-1.9,6.1907,6.1907,0,0,1-1.9-4.6V86.8a6.4124,6.4124,0,0,1,1.9-4.7A7.0216,7.0216,0,0,1,165.8,80.2Zm0,52.7a6.4124,6.4124,0,0,1,4.7,1.9,6.2578,6.2578,0,0,1,1.9,4.7v13.2a18.9491,18.9491,0,0,1-5.8,14,19.3386,19.3386,0,0,1-14,5.8H139.4a6.4124,6.4124,0,0,1-4.7-1.9,6.1907,6.1907,0,0,1-1.9-4.6,6.4124,6.4124,0,0,1,1.9-4.7,6.2578,6.2578,0,0,1,4.7-1.9h13.2a6.4124,6.4124,0,0,0,4.7-1.9,6.1907,6.1907,0,0,0,1.9-4.6V139.7a6.0393,6.0393,0,0,1,1.9-4.6,5.8388,5.8388,0,0,1,4.7-2.2ZM47.3,27.6H60.5a6.4124,6.4124,0,0,1,4.7,1.9,6.1907,6.1907,0,0,1,1.9,4.6,6.0393,6.0393,0,0,1-1.9,4.6,6.2578,6.2578,0,0,1-4.7,1.9H47.3a6.4124,6.4124,0,0,0-4.7,1.9,6.2578,6.2578,0,0,0-1.9,4.7V60.4a6.4124,6.4124,0,0,1-1.9,4.7A6.2578,6.2578,0,0,1,34.1,67a6.8338,6.8338,0,0,1-4.7-1.9,6.2578,6.2578,0,0,1-1.9-4.7v-13a18.9491,18.9491,0,0,1,5.8-14,19.1078,19.1078,0,0,1,14-5.8ZM86.8,159.2h26.3a6.4124,6.4124,0,0,1,4.7,1.9,6.2578,6.2578,0,0,1,1.9,4.7,6.0393,6.0393,0,0,1-1.9,4.6,6.2578,6.2578,0,0,1-4.7,1.9H86.8a6.4124,6.4124,0,0,1-4.7-1.9,6.1907,6.1907,0,0,1-1.9-4.6,6.4124,6.4124,0,0,1,1.9-4.7,7.0216,7.0216,0,0,1,4.7-1.9Zm-52.6-79a6.8338,6.8338,0,0,1,4.7,1.9,6.2578,6.2578,0,0,1,1.9,4.7v26.3a6.0393,6.0393,0,0,1-1.9,4.6,6.2578,6.2578,0,0,1-4.7,1.9,6.4124,6.4124,0,0,1-4.7-1.9,6.1907,6.1907,0,0,1-1.9-4.6V86.8a6.4124,6.4124,0,0,1,1.9-4.7,6.8338,6.8338,0,0,1,4.7-1.9Zm0,52.7a6.4124,6.4124,0,0,1,4.7,1.9,6.2578,6.2578,0,0,1,1.9,4.7v13.2a6.4124,6.4124,0,0,0,1.9,4.7,6.2578,6.2578,0,0,0,4.7,1.9H60.6a6.4124,6.4124,0,0,1,4.7,1.9,6.1907,6.1907,0,0,1,1.9,4.6,6.4124,6.4124,0,0,1-1.9,4.7,6.2578,6.2578,0,0,1-4.7,1.9H47.3a18.9491,18.9491,0,0,1-14-5.8,18.9491,18.9491,0,0,1-5.8-14V139.4a6.0393,6.0393,0,0,1,1.9-4.6,7.27,7.27,0,0,1,4.8-1.9ZM139.5,27.6h13.2a18.9491,18.9491,0,0,1,14,5.8,18.9491,18.9491,0,0,1,5.8,14V60.6a6.0393,6.0393,0,0,1-1.9,4.6,6.2578,6.2578,0,0,1-4.7,1.9,6.4124,6.4124,0,0,1-4.7-1.9,6.1907,6.1907,0,0,1-1.9-4.6V47.3a6.0393,6.0393,0,0,0-1.9-4.6,6.2578,6.2578,0,0,0-4.7-1.9H139.5a6.4124,6.4124,0,0,1-4.7-1.9,6.2578,6.2578,0,0,1-1.9-4.7,6.0393,6.0393,0,0,1,1.9-4.6,6.1377,6.1377,0,0,1,4.7-2Z" transform="translate(-27.5 -27.6)"/><path class="cls-2" d="M129.9,105a30.3969,30.3969,0,0,1-24.8,24.8v-9.7H95v9.7A30.3969,30.3969,0,0,1,70.2,105h9.7V94.9H70.2A30.1627,30.1627,0,0,1,95,70.1v9.7h10.1V70.1a30.3969,30.3969,0,0,1,24.8,24.8h-9.7V105h9.7m10.2-10.1a40.2353,40.2353,0,0,0-35-35V49.5H95V59.9a40.2353,40.2353,0,0,0-35,35H49.5V105H59.9a40.2353,40.2353,0,0,0,35,35v10.4H105V140a40.2353,40.2353,0,0,0,35-35h10.4V94.9H140.1m-40.1-5A10.1,10.1,0,1,1,89.9,100,10.0721,10.0721,0,0,1,100,89.9Z" transform="translate(-27.5 -27.6)"/></svg>