<svg id="图层_1" data-name="图层 1" xmlns="http://www.w3.org/2000/svg" viewBox="0 0 144.8393 144.8393"><title>TSC_SIM</title><path d="M86.8389,27.6h26.3289a6.59,6.59,0,0,1,6.5863,6.5776,6.59,6.59,0,0,1-6.5863,6.5776H86.838a6.5936,6.5936,0,0,1-6.5854-6.5776,6.5936,6.5936,0,0,1,6.5854-6.5767Zm78.9963,52.6384a6.4022,6.4022,0,0,1,4.6513,1.9312,6.3228,6.3228,0,0,1,1.9331,4.6658v26.33a6.5854,6.5854,0,0,1-13.1707,0v-26.33a6.33,6.33,0,0,1,1.9331-4.6658A6.4036,6.4036,0,0,1,165.8352,80.2381Zm0,52.6578a6.5968,6.5968,0,0,1,6.5844,6.5979v13.1543a19.7279,19.7279,0,0,1-19.7464,19.7513H139.5025a6.5873,6.5873,0,0,1,0-13.1746h13.1688a6.5968,6.5968,0,0,0,6.5844-6.5767V139.4735a6.5968,6.5968,0,0,1,6.5882-6.5776h-.0087ZM47.3393,27.6006H60.5072a6.59,6.59,0,0,1,6.5863,6.5767,6.59,6.59,0,0,1-6.5863,6.5776H47.3393a6.6,6.6,0,0,0-6.5882,6.597V60.5072a6.3311,6.3311,0,0,1-1.9331,4.6667,6.5692,6.5692,0,0,1-9.3045,0A6.3248,6.3248,0,0,1,27.58,60.5072V47.3519a18.9659,18.9659,0,0,1,5.7858-13.9587A19.0129,19.0129,0,0,1,47.3277,27.6h.0116Zm39.5,131.6242h26.33a6.5873,6.5873,0,0,1,0,13.1746H86.838a6.5873,6.5873,0,0,1,0-13.1746ZM34.1783,80.2391a6.4066,6.4066,0,0,1,4.6522,1.93,6.331,6.331,0,0,1,1.9341,4.6658v26.33a6.5986,6.5986,0,0,1-6.5863,6.5767,6.6,6.6,0,0,1-6.5893-6.5767v-26.33a6.3329,6.3329,0,0,1,1.9361-4.6658,6.4018,6.4018,0,0,1,4.6532-1.9312Zm0,52.6568a6.5985,6.5985,0,0,1,6.5863,6.5979v13.1543a6.5968,6.5968,0,0,0,6.5844,6.597H60.52a6.5919,6.5919,0,0,1,6.5844,6.5776A6.59,6.59,0,0,1,60.52,172.42H47.349a19.7656,19.7656,0,0,1-19.7474-19.7512V139.4928a6.5968,6.5968,0,0,1,6.5844-6.5776ZM139.5044,27.6006h13.1679A19.7279,19.7279,0,0,1,172.42,47.3316V60.5072a6.5854,6.5854,0,0,1-13.1707,0V47.3316a6.5968,6.5968,0,0,0-6.5882-6.5767H139.4928a6.5861,6.5861,0,0,1-4.657-11.2434,6.3475,6.3475,0,0,1,4.657-1.9311l.01.0193Z" transform="translate(-27.5804 -27.5804)"/><path d="M129.887,105.0377a30.477,30.477,0,0,1-24.8353,24.8353v-9.6918H94.956v9.6918a30.4767,30.4767,0,0,1-24.8352-24.8353h9.6918V94.942H70.1208A30.4765,30.4765,0,0,1,94.956,70.1068v9.6918h10.0957V70.1068A30.4767,30.4767,0,0,1,129.887,94.942h-9.6918v10.0957h9.6918M140.0836,94.942A40.2968,40.2968,0,0,0,105.0517,59.91V49.5116H94.956V59.91A40.2966,40.2966,0,0,0,59.9242,94.942H49.5256v10.0957H59.9242A40.2968,40.2968,0,0,0,94.956,140.07v10.3985h10.0957V140.07a40.297,40.297,0,0,0,35.0319-35.0319h10.3985V94.942H140.0836m-40.08-5.0478A10.0957,10.0957,0,1,1,89.9082,99.99a10.1253,10.1253,0,0,1,10.0957-10.0957Z" transform="translate(-27.5804 -27.5804)"/></svg>